<svg width="250" height="250" viewBox="0 0 250 250" fill="none" xmlns="http://www.w3.org/2000/svg">
<path d="M185.302 113.474V202.629C185.302 204.916 184.393 207.108 182.777 208.725C181.16 210.342 178.967 211.25 176.681 211.25H47.3707C45.0843 211.25 42.8916 210.342 41.2749 208.725C39.6582 207.108 38.75 204.916 38.75 202.629V99.181H102.052L153.784 47.4569H47.3707C33.1121 47.4569 21.5086 59.0604 21.5086 73.319V202.629C21.5086 216.888 33.1121 228.491 47.3707 228.491H176.681C190.94 228.491 202.543 216.888 202.543 202.629V96.2241L185.302 113.474Z" fill="black"/>
<path d="M211.25 63.1293L223.44 50.9397C225.086 49.3492 226.4 47.4467 227.304 45.3432C228.207 43.2397 228.683 40.9773 228.703 38.688C228.723 36.3987 228.286 34.1283 227.419 32.0094C226.552 29.8905 225.272 27.9655 223.653 26.3466C222.035 24.7278 220.11 23.4476 217.991 22.5807C215.872 21.7137 213.601 21.2775 211.312 21.2974C209.023 21.3173 206.76 21.7929 204.657 22.6965C202.553 23.6001 200.651 24.9136 199.06 26.5603L186.871 38.75L211.25 63.1293Z" fill="black"/>
<path d="M174.672 50.9396L113.724 111.897L107.621 142.379L138.103 136.276L199.06 75.3276L174.672 50.9396Z" fill="black"/>
</svg>
